<?xml version="1.0" standalone="no"?>
<!DOCTYPE svg PUBLIC "-//W3C//DTD SVG 20010904//EN"
 "http://www.w3.org/TR/2001/REC-SVG-20010904/DTD/svg10.dtd">
<svg version="1.0" xmlns="http://www.w3.org/2000/svg"
 width="865.000000pt" height="865.000000pt" viewBox="0 0 865.000000 865.000000"
 preserveAspectRatio="xMidYMid meet">
<metadata>
Created by potrace 1.14, written by Peter Selinger 2001-2017
</metadata>
<g transform="translate(0.000000,865.000000) scale(0.100000,-0.100000)"
fill="#000000" stroke="none">
<path d="M3638 7265 c-2 -2 -140 -6 -308 -9 -435 -8 -675 -16 -975 -31 -399
-19 -737 -43 -855 -60 -14 -2 -56 -6 -95 -10 -38 -4 -72 -8 -75 -10 -3 -2 -32
-6 -65 -10 -220 -23 -435 -103 -581 -216 -220 -169 -349 -378 -410 -664 -9
-39 -33 -170 -39 -205 -3 -19 -7 -46 -10 -60 -2 -14 -7 -44 -10 -67 -3 -24 -7
-60 -10 -80 -9 -68 -24 -216 -30 -293 -4 -41 -8 -97 -11 -125 -2 -27 -6 -95
-10 -150 -3 -55 -7 -122 -9 -150 -18 -227 -26 -1007 -12 -1330 8 -208 16 -365
22 -440 2 -33 7 -98 10 -145 3 -47 8 -101 10 -120 4 -34 16 -149 20 -200 3
-40 33 -254 41 -295 2 -11 7 -40 10 -65 3 -25 9 -49 12 -55 3 -5 7 -25 9 -45
9 -87 72 -268 126 -365 155 -276 401 -456 717 -524 44 -10 57 -12 150 -26 25
-4 53 -9 62 -10 9 -2 45 -6 80 -10 35 -3 74 -7 88 -10 14 -2 61 -7 105 -10 44
-4 98 -8 120 -10 158 -14 285 -22 445 -30 63 -3 144 -7 180 -10 58 -4 148 -7
530 -20 729 -26 2288 -26 2925 0 44 2 159 6 255 10 96 3 207 8 245 10 39 2
126 6 195 10 139 7 191 11 330 21 52 3 111 8 130 9 63 4 194 17 220 20 14 2
66 9 115 15 112 14 156 20 175 25 8 2 31 7 50 10 100 17 296 84 311 108 3 5
10 8 14 6 16 -5 172 109 239 176 128 127 219 277 269 445 23 78 29 100 42 168
2 13 6 31 9 40 3 9 8 35 11 57 3 23 7 52 10 65 5 25 10 62 20 140 3 25 8 56
10 70 2 14 7 52 10 85 3 33 8 76 10 95 3 19 7 67 10 105 3 39 7 93 10 120 2
28 7 97 11 155 3 58 8 123 9 145 26 392 26 1190 0 1620 -10 166 -17 264 -20
300 -2 22 -6 72 -10 110 -3 39 -8 86 -10 105 -2 19 -7 67 -10 105 -7 71 -12
110 -20 155 -2 14 -7 45 -10 70 -3 25 -7 55 -9 66 -2 12 -7 37 -10 55 -3 19
-10 57 -16 84 -6 28 -13 64 -16 80 -12 70 -56 196 -97 280 -50 102 -167 262
-188 257 -8 -2 -11 0 -7 4 7 7 -12 28 -78 84 -124 108 -330 200 -500 225 -21
4 -47 8 -57 11 -10 3 -32 7 -50 9 -89 11 -123 16 -137 20 -8 2 -51 6 -95 10
-44 3 -93 8 -110 10 -35 5 -131 13 -235 20 -41 3 -111 7 -155 10 -87 6 -190
12 -355 19 -243 12 -355 17 -535 22 -104 3 -260 7 -345 10 -166 5 -1787 13
-1792 9z"/>
</g>
</svg>
